<svg width="24" height="24" fill="none" xmlns="http://www.w3.org/2000/svg"><path fill="#6b46c1" d="M18.793 8.793a1 1 0 011.414 0l4.5 4.5a1 1 0 010 1.414l-4.5 4.5a1 1 0 01-1.414-1.414L22.586 14l-3.793-3.793a1 1 0 010-1.414z" clip-rule="evenodd" fill-rule="evenodd"/><path d="M16.793 6.793a1 1 0 011.414 0l4.5 4.5a1 1 0 010 1.414l-4.5 4.5a1 1 0 01-1.414-1.414L20.586 12l-3.793-3.793a1 1 0 010-1.414z" clip-rule="evenodd"/><path fill="#6b46c1" d="M9.207 8.793a1 1 0 010 1.414L5.414 14l3.793 3.793a1 1 0 11-1.414 1.414l-4.5-4.5a1 1 0 010-1.414l4.5-4.5a1 1 0 011.414 0z" clip-rule="evenodd" fill-rule="evenodd"/><path d="M7.207 6.793a1 1 0 010 1.414L3.414 12l3.793 3.793a1 1 0 11-1.414 1.414l-4.5-4.5a1 1 0 010-1.414l4.5-4.5a1 1 0 011.414 0z" clip-rule="evenodd"/><path fill="#234e52" d="M17.428 5.066a1 1 0 01.576 1.292l-6.14 16a1 1 0 11-1.868-.716l6.14-16a1 1 0 011.292-.576z" clip-rule="evenodd" fill-rule="evenodd"/><path d="M15.428 3.066a1 1 0 01.576 1.292l-6.14 16a1 1 0 11-1.868-.716l6.14-16a1 1 0 011.292-.576z" clip-rule="evenodd"/></svg>